# xmcd CD database file
#
# Track frame offsets:
#	150
#	12283
#	24675
#	37092
#	50882
#	67180
#	77924
#	93770
#	103999
#	114454
#	128903
#	142086
#	154219
#	165742
#	177965
#	193267
#	208592
#	224483
#	233272
#	247062
#	264705
#	279760
#	290848
#	302982
#	318568
#
# Disc length: 4437 seconds
#
# Revision: 0
# Processed by: cddbd v1.5.2PL0 Copyright (c) Steve Scherf et al.
# Submitted via: CDex 1.70beta2
#
DISCID=88115319
DTITLE=omnibus - Best Jazz Vocal 100 2 A Taste Of Love_Disc3
DYEAR=1900
DGENRE=Jazz
TTITLE0=YOU AND THE NIGHT AND THE MUSIC/ Julie London
TTITLE1=BUT BEAUTIFUL/ Monica Lewis
TTITLE2=MY ONE AND ONLY LOVE/ June Christy
TTITLE3=THAT OLD FEELING/ Chet Baker
TTITLE4=IT`S ALL RIGHT WITH ME/ Nancy Wilson
TTITLE5=HAVE YOU MET MISS JONES?/ Sarah Vaughan
TTITLE6=MY IDEAL/ Sue Raney
TTITLE7=NIGHT AND DAY/ KOBAYASHI KEI
TTITLE8=WHISPER NOT/ Peggy Lee
TTITLE9=HONEYSUCKLE ROSE/ Mark Murphy
TTITLE10=VIOLETS FOR MY FURS/ Beverly Kenney
TTITLE11=DEEP NIGHT/ Ann Richards
TTITLE12=LOVE WALKED IN/ Abbey Lincoln
TTITLE13=COMES LOVE/ The Andrews Sisters
TTITLE14=HOW DEEP IS THE OCEAN/ Dick Haymes
TTITLE15=YOU GO TO MY HEAD/ Dolores Gray
TTITLE16=DO NOTHIN` `TIL YOU HEAR FROM ME/ Dinah Shore
TTITLE17=WHEN LIGHTS ARE LOW/ Dakota Staton
TTITLE18=IN THE WEE SMALL HOURS OF THE MORNING/ Valerie Carr
TTITLE19=TOO MARVELOUS FOR WORDS/ Eliane Elias
TTITLE20=ALONE TOGETHER/ Bob Manning
TTITLE21=LIKE SOMEONE IN LOVE/ Pearl Bailey
TTITLE22=IN THE STILL OF THE NIGHT/ Jo Stafford
TTITLE23=EAST OF THE SUN (AND WEST OF THE MOON)/ Keely Smith
TTITLE24=WHEN I FALL IN LOVE/ Nat King Cole
EXTD=
EXTT0=
EXTT1=
EXTT2=
EXTT3=
EXTT4=
EXTT5=
EXTT6=
EXTT7=
EXTT8=
EXTT9=
EXTT10=
EXTT11=
EXTT12=
EXTT13=
EXTT14=
EXTT15=
EXTT16=
EXTT17=
EXTT18=
EXTT19=
EXTT20=
EXTT21=
EXTT22=
EXTT23=
EXTT24=
PLAYORDER=
